<?xml version="1.0" standalone="no"?>
<!DOCTYPE svg PUBLIC "-//W3C//DTD SVG 20010904//EN"
 "http://www.w3.org/TR/2001/REC-SVG-20010904/DTD/svg10.dtd">
<svg version="1.0" xmlns="http://www.w3.org/2000/svg"
 width="1200.0px" height="700.000000px" viewBox="0 0 894.000000 516.000000"
 preserveAspectRatio="xMidYMid meet">

<g transform="translate(0.000000,516.000000) scale(0.100000,-0.100000)"
fill="#000000" stroke="none">
<path d="M6798 3441 c-79 -26 -136 -61 -190 -119 -144 -154 -158 -391 -34
-560 70 -94 137 -137 275 -173 77 -20 82 -20 148 -4 37 9 85 25 106 35 225
109 318 377 206 598 -95 186 -319 284 -511 223z m229 -53 c228 -57 348 -321
241 -534 -114 -228 -409 -282 -597 -108 -40 36 -67 73 -87 116 -26 56 -29 74
-29 158 0 84 3 103 29 157 76 166 265 256 443 211z"/>
<path d="M6904 3326 c-10 -27 4 -46 34 -46 101 0 210 -86 239 -190 18 -65 35
-82 58 -59 30 30 -17 147 -87 218 -61 63 -229 116 -244 77z"/>
<path d="M5670 3315 c0 -8 17 -19 43 -25 23 -6 59 -16 80 -21 l37 -10 0 -254
c0 -140 -2 -255 -5 -255 -3 0 -22 11 -43 25 -73 48 -148 68 -262 69 -340 2
-546 -226 -567 -626 -18 -340 98 -599 316 -706 76 -37 76 -37 206 -37 125 0
133 1 190 30 64 32 154 116 181 167 l17 32 19 -40 c64 -125 157 -164 401 -164
108 0 117 1 117 19 0 15 -15 22 -77 38 l-78 19 -5 809 c-6 896 -1 841 -70 898
-47 40 -90 47 -302 47 -167 0 -198 -2 -198 -15z m43 -561 c18 -9 51 -32 75
-51 l42 -34 0 -451 0 -450 -32 -60 c-49 -93 -138 -158 -214 -158 -39 0 -92 48
-123 112 -44 90 -60 186 -67 408 -13 393 32 601 145 677 41 28 126 31 174 7z"/>
<path d="M3844 2840 c-128 -18 -198 -46 -265 -107 -57 -52 -79 -100 -79 -174
0 -72 24 -122 75 -157 37 -26 121 -39 179 -28 l36 7 0 198 0 199 44 11 c109
27 209 5 275 -62 71 -71 99 -178 103 -392 l3 -130 -105 -7 c-189 -14 -578 -75
-622 -99 -11 -6 -33 -39 -48 -72 -98 -217 -44 -409 140 -502 80 -41 170 -57
295 -53 99 3 117 6 175 34 71 34 135 90 176 155 l26 42 13 -30 c19 -44 82
-111 126 -134 50 -25 148 -39 287 -39 103 0 112 1 112 19 0 15 -15 22 -77 38
l-78 19 -6 414 c-4 294 -9 427 -18 455 -61 192 -221 333 -426 378 -89 20 -262
28 -341 17z m374 -883 c2 -188 2 -188 -25 -238 -40 -75 -112 -143 -167 -159
-80 -22 -132 4 -173 88 -24 49 -28 72 -31 163 -3 70 1 131 11 180 25 119 30
127 79 134 72 11 221 23 263 21 l40 -1 3 -188z"/>
<path d="M1020 2792 c0 -14 15 -23 60 -37 33 -10 64 -23 69 -29 4 -6 102 -207
216 -446 115 -239 248 -517 296 -617 l88 -183 39 0 39 0 158 400 c87 219 161
398 164 396 4 -3 92 -182 196 -400 l189 -396 41 0 40 1 240 607 241 606 104
41 c70 27 106 46 108 58 3 16 -15 17 -237 17 -231 0 -241 -1 -241 -19 0 -15
21 -27 95 -56 52 -21 95 -39 95 -42 0 -7 -261 -676 -270 -692 -9 -18 5 -45
-165 314 -76 160 -148 307 -161 327 -37 59 -93 109 -153 137 -54 25 -64 26
-263 29 -200 4 -208 3 -208 -16 0 -15 14 -23 66 -37 l66 -18 89 -184 89 -185
-71 -181 c-38 -100 -74 -185 -78 -190 -4 -4 -76 137 -161 314 -85 177 -169
341 -187 365 -83 108 -163 134 -415 134 -166 0 -178 -1 -178 -18z"/>
<path d="M6848 2383 c-25 -2 -51 -10 -57 -17 -7 -9 -13 -145 -18 -399 -6 -351
-5 -388 11 -411 16 -26 19 -26 136 -26 112 0 120 1 134 22 14 19 16 76 16 414
0 301 -3 394 -12 401 -15 12 -142 21 -210 16z"/>
</g>
</svg>
